<?xml version="1.0" encoding="UTF-8"?>
<svg xmlns="http://www.w3.org/2000/svg" id="artwork" width="512" height="512" viewBox="0 0 64 64"><rect x="7.5" y="9.5" width="19" height="33" rx="2.5" style="fill:#3e3ef4"/><path d="M59,2.5H42.97217A23.96194,23.96194,0,0,0,31.99988,5.32281,21.75524,21.75524,0,0,0,21.02783,2.5H5A4.50491,4.50491,0,0,0,.5,7V54A4.50491,4.50491,0,0,0,5,58.5H21.166a19.57483,19.57483,0,0,1,10.0625,2.78613,1.49839,1.49839,0,0,0,1.543,0A19.57483,19.57483,0,0,1,42.834,58.5H59A4.50491,4.50491,0,0,0,63.5,54V7A4.50491,4.50491,0,0,0,59,2.5Zm-16.02783,3H59A1.50164,1.50164,0,0,1,60.5,7V45A1.50164,1.50164,0,0,1,59,46.5H42.834A22.56436,22.56436,0,0,0,33.5,48.52148V7.92676A18.81044,18.81044,0,0,1,42.97217,5.5ZM3.5,7A1.50164,1.50164,0,0,1,5,5.5H21.02783A20.71782,20.71782,0,0,1,30.5,7.92676V48.52148A22.56436,22.56436,0,0,0,21.166,46.5H5A1.50164,1.50164,0,0,1,3.5,45ZM5,55.5A1.50164,1.50164,0,0,1,3.5,54V49.22357A4.44744,4.44744,0,0,0,5,49.5H21.166A19.5654,19.5654,0,0,1,30.5,51.88226v5.64661A22.56488,22.56488,0,0,0,21.166,55.5Zm54,0H42.834A22.56488,22.56488,0,0,0,33.5,57.52887V51.88226A19.5654,19.5654,0,0,1,42.834,49.5H59a4.44744,4.44744,0,0,0,1.5-.27643V54A1.50164,1.50164,0,0,1,59,55.5Z"/><path d="M39,15.5H55a1.5,1.5,0,0,0,0-3H39a1.5,1.5,0,0,0,0,3Z"/><path d="M39,23.5H55a1.5,1.5,0,0,0,0-3H39a1.5,1.5,0,0,0,0,3Z"/><path d="M39,31.5H55a1.5,1.5,0,0,0,0-3H39a1.5,1.5,0,0,0,0,3Z"/><path d="M39,39.5H55a1.5,1.5,0,0,0,0-3H39a1.5,1.5,0,0,0,0,3Z"/></svg>
