<?xml version="1.0" standalone="no"?>
<!DOCTYPE svg PUBLIC "-//W3C//DTD SVG 20010904//EN"
 "http://www.w3.org/TR/2001/REC-SVG-20010904/DTD/svg10.dtd">
<svg version="1.0" xmlns="http://www.w3.org/2000/svg"
 width="300.000000pt" height="300.000000pt" viewBox="0 0 300.000000 300.000000"
 preserveAspectRatio="xMidYMid meet">
<metadata>
Created by potrace 1.10, written by Peter Selinger 2001-2011
</metadata>
<g transform="translate(0.000000,300.000000) scale(0.100000,-0.100000)"
fill="#fff" stroke="none">
<path d="M1136 1960 c-143 -36 -263 -150 -307 -289 -16 -54 -19 -93 -19 -275
0 -205 1 -214 23 -247 39 -58 84 -81 147 -77 38 3 65 11 87 28 57 41 63 68 63
268 0 189 5 217 41 251 28 25 89 28 124 5 38 -25 45 -65 45 -257 0 -205 9
-236 80 -276 77 -43 165 -19 217 58 22 32 23 43 23 216 0 194 7 234 45 259 29
19 94 20 115 3 43 -35 45 -44 50 -256 6 -230 8 -239 81 -280 76 -43 164 -19
216 58 22 33 23 42 23 247 0 241 -9 289 -73 386 -45 67 -97 110 -185 151 -61
29 -76 32 -162 32 -101 0 -158 -15 -232 -62 l-38 -23 -37 23 c-21 13 -58 31
-83 41 -53 21 -187 30 -244 16z m184 -23 c31 -6 120 -41 120 -48 0 -6 31 -17
69 -25 61 -12 179 -250 143 -286 -8 -8 -12 -69 -12 -195 0 -178 -9 -241 -33
-226 -6 4 -8 0 -4 -10 4 -11 -6 -21 -37 -36 -23 -12 -51 -21 -63 -21 -34 0
-83 21 -83 36 0 7 -6 11 -13 8 -8 -3 -20 9 -29 29 -13 28 -17 71 -18 218 0
112 -5 197 -12 216 -12 33 -61 65 -106 70 -29 3 -91 -24 -98 -42 -4 -8 -9 -13
-13 -11 -10 7 -12 -14 -19 -229 -4 -123 -12 -208 -19 -220 -41 -71 -148 -94
-201 -45 -11 10 -23 16 -27 12 -4 -4 -5 -2 -4 3 2 6 -3 21 -11 35 -11 19 -16
69 -17 210 -3 200 5 268 39 336 27 55 142 179 157 170 6 -4 11 -2 11 3 0 14
65 42 120 52 39 6 112 5 160 -4z m574 -18 c22 -11 46 -19 53 -19 8 0 11 -4 8
-10 -3 -5 2 -10 12 -10 26 0 108 -76 143 -133 51 -80 60 -139 59 -352 0 -166
-3 -195 -20 -231 -21 -44 -69 -74 -117 -74 -37 0 -112 37 -112 54 0 8 -6 16
-12 18 -10 4 -14 58 -18 209 -3 112 -8 211 -10 219 -6 20 -38 48 -73 67 -32
16 -75 14 -95 -4 -20 -19 -48 -16 -49 5 -2 28 -48 126 -66 141 -10 7 -17 19
-17 25 0 6 -9 17 -20 24 -31 19 -24 31 35 58 101 46 218 51 299 13z"/>
<path d="M1464 863 c7 -7 87 -5 95 3 2 2 -20 4 -49 4 -29 0 -50 -3 -46 -7z"/>
</g>
</svg>
